<?xml version="1.0" encoding="utf-8"?>
<!-- Generator: Adobe Illustrator 16.0.0, SVG Export Plug-In . SVG Version: 6.00 Build 0)  -->
<!DOCTYPE svg PUBLIC "-//W3C//DTD SVG 1.1//EN" "http://www.w3.org/Graphics/SVG/1.1/DTD/svg11.dtd">
<svg version="1.1" id="Layer_1" xmlns="http://www.w3.org/2000/svg" xmlns:xlink="http://www.w3.org/1999/xlink" x="0px" y="0px"
	 width="623.622px" height="623.62px" viewBox="0 0 623.622 623.62" enable-background="new 0 0 623.622 623.62"
	 xml:space="preserve">
<g>
	<g>
		<g>
			<path fill-rule="evenodd" clip-rule="evenodd" d="M273.307,319.526c1.713-1.846,19.104-20.268,21.809-23.443
				c16.076,21.22,41.748,22.868,63.639,34.608c-21.256,18.081-38.152,38.726-44.73,65.839c-6.613,27.169-1.641,52.991,11.988,78.584
				c-3.25,0.27-5.574,0.664-7.895,0.664c-60.545,0.018-121.082,0.052-181.617-0.021c-18.424-0.014-29.873-13.136-26.801-31.452
				c4.23-25.175,9.186-50.246,13.934-75.337c0.537-2.903,1.855-5.626,2.66-8.495c2.984-10.607,9.258-17.596,19.992-21.503
				c20.795-7.581,41.299-15.968,61.809-24.32c4.121-1.666,7.947-4.317,11.512-7.023c4.131-3.136,7.824-6.845,12.295-10.844
				c7.43,8.011,14.668,15.251,21.102,23.153L273.307,319.526z"/>
			<path fill-rule="evenodd" clip-rule="evenodd" d="M436.264,328.542c-58.555-0.37-96.264,47.188-97.373,94.664
				c-1.25,54.369,42.84,99.711,96.654,99.506c54.35-0.204,96.883-42.244,97.047-96.695
				C534.438,378.499,496.647,328.911,436.264,328.542z"/>
			<path fill-rule="evenodd" clip-rule="evenodd" d="M336.616,205.646c-0.453,6.996-1.725,14.014-3.346,20.846
				c-0.676,2.914-2.646,7.139-4.902,7.775c-6.854,1.928-7.635,7.635-9.807,12.64c-9.213,21.273-24.191,36.704-45.691,45.834
				c-6.566,2.788-12.619,2.688-19.102-0.145c-22.322-9.745-37.588-26.14-46.367-48.686c-1.58-4.021-2.709-8.044-7.838-9.354
				c-1.58-0.391-3.447-2.771-3.754-4.535c-1.91-9.971-3.695-20.005-4.721-30.119c-0.184-2.012,2.811-5.807,4.885-6.279
				c4.635-1.065,4.861-3.526,4.881-7.345c0.021-2.871-0.02-5.765-0.061-8.655h125.953v14.811
				C335.631,194.713,337.231,196.311,336.616,205.646z"/>
		</g>
	</g>
	<path fill-rule="evenodd" clip-rule="evenodd" fill="#F5D850" d="M222.366,113.579c0,3.698,0.002,6.899,0,10.104
		c-0.002,5.771-0.037,11.543,0,17.313c0.029,4.467,2.842,7.76,6.908,8.224c4.66,0.531,8.545-3.067,8.563-8.036
		c0.033-10.987,0.008-21.976,0.02-32.963c0.006-3.675-0.375-3.033,2.854-3.992c4.287-1.277,8.682-2.207,13.055-3.185
		c1.689-0.38,1.91-0.046,1.91,2.052c-0.006,16.317-0.006,32.633-0.021,48.948c-0.002,2.755,0.779,5.161,3.029,6.881
		c2.518,1.927,5.297,2.22,8.139,0.84c3.01-1.462,4.311-4.09,4.324-7.316c0.043-10.269,0.012-20.534,0.014-30.801
		c0-6.328,0.059-12.654-0.027-18.979c-0.021-1.652,0.715-1.948,2.008-1.636c4.676,1.122,9.336,2.314,14.014,3.437
		c1.451,0.349,1.844,1.186,1.836,2.635c-0.055,11.268-0.043,22.532-0.021,33.798c0.01,4.404,2.514,7.546,6.477,8.266
		c4.703,0.851,8.982-2.854,9-7.87c0.035-8.548,0.02-17.095,0.025-25.639c0-0.539,0-1.075,0-2.171
		c2.756,2.315,5.268,4.203,7.527,6.36c11.42,10.902,18.299,24.22,20.832,39.785c0.285,1.747,0.424,3.519,0.6,5.282
		c0.092,0.941,0.539,1.364,1.51,1.32c1.109-0.051,2.219-0.03,3.33-0.008c2.703,0.052,4.588,1.924,4.633,4.602
		c0.027,1.61,0.031,3.221,0.023,4.828c-0.025,3.509-1.852,5.375-5.318,5.378c-15.873,0.008-31.744,0-47.613,0
		c-32.746-0.003-65.486-0.002-98.23-0.003c-0.889,0-1.783,0.043-2.66-0.058c-2.299-0.259-4.074-2.159-4.16-4.479
		c-0.068-1.829-0.043-3.663-0.018-5.494c0.035-2.769,1.906-4.648,4.695-4.765c3.863-0.156,3.846-0.16,4.348-4.062
		c2.279-17.652,9.932-32.498,23.236-44.373C218.729,116.439,220.368,115.206,222.366,113.579z"/>
	<g>
		<path fill-rule="evenodd" clip-rule="evenodd" fill="#0CB4AE" d="M452.2,420.579c11.297,5.34,18.705,13.675,22.254,25.271
			c0.658,2.173,1.053,4.422,1.395,6.658c1.18,7.795-0.744,11.613-7.74,15.242c-7.09,3.676-14.816,4.945-22.66,5.609
			c-11.434,0.981-22.736,0.365-33.74-3.092c-13.318-4.183-16.473-10.202-12.646-23.672c3.416-11.961,10.918-20.471,22.455-25.984
			c-7.537-6.989-11.34-15.275-9.422-25.559c1.174-6.307,4.373-11.41,9.459-15.291c10.586-8.066,25.234-6.529,34.227,3.39
			C463.155,391.296,466.428,407.729,452.2,420.579z"/>
		<path fill-rule="evenodd" clip-rule="evenodd" fill="#0CB4AE" d="M391.168,421.229c-8.055-9.127-9.244-18.285-3.588-26.065
			c5.094-6.988,14.102-9.459,22.463-5.958c-3.779,10.981-1.879,21.09,5.48,30.09c-17.279,14.578-19.385,18.413-21.645,39.567
			c-6.59-0.51-13.016-1.537-18.031-6.275c-1.275-1.19-2.012-3.612-1.988-5.468c0.174-10.584,5.008-18.618,14.055-24.115
			c0.475-0.303,0.982-0.556,1.48-0.825C389.879,421.909,390.37,421.655,391.168,421.229z"/>
		<path fill-rule="evenodd" clip-rule="evenodd" fill="#0CB4AE" d="M463.639,388.792c7.701-3.119,16.74-0.236,21.58,6.895
			c5.436,8.001,4.059,17.226-4.039,25.463c1.053,0.569,2.027,1.029,2.973,1.584c8.941,5.198,13.617,13.041,14.623,23.245
			c0.371,3.867-1.006,6.925-4.406,8.447c-4.49,2.012-9.26,3.406-14.514,5.292c-0.26-8.842-1.617-16.448-5.449-23.452
			c-3.867-7.051-9.342-12.517-16.18-16.652C466.325,406.492,466.903,403.166,463.639,388.792z"/>
	</g>
</g>
</svg>
