<?xml version="1.0" encoding="utf-8"?>
<!-- Generator: Adobe Illustrator 19.0.0, SVG Export Plug-In . SVG Version: 6.00 Build 0)  -->
<svg version="1.1" id="Layer_1" xmlns="http://www.w3.org/2000/svg" xmlns:xlink="http://www.w3.org/1999/xlink" x="0px" y="0px"
	 viewBox="6 85.4 623.6 623.6" style="enable-background:new 6 85.4 623.6 623.6;" xml:space="preserve">
<style type="text/css">
	.st0{fill:#F5D850;}
	.st1{fill:#0CB4AE;}
</style>
<g>
	<g>
		<g>
			<path d="M284.9,395c1.7-1.8,19.1-20.3,21.8-23.4c16.1,21.2,41.7,22.9,63.6,34.6c-21.3,18.1-38.2,38.7-44.7,65.8
				c-6.6,27.2-1.6,53,12,78.6c-3.3,0.3-5.6,0.7-7.9,0.7c-60.5,0-121.1,0.1-181.6,0c-18.4,0-29.9-13.1-26.8-31.5
				c4.2-25.2,9.2-50.2,13.9-75.3c0.5-2.9,1.9-5.6,2.7-8.5c3-10.6,9.3-17.6,20-21.5c20.8-7.6,41.3-16,61.8-24.3
				c4.1-1.7,7.9-4.3,11.5-7c4.1-3.1,7.8-6.8,12.3-10.8c7.4,8,14.7,15.3,21.1,23.2L284.9,395z"/>
			<path d="M447.9,404c-58.6-0.4-96.3,47.2-97.4,94.7c-1.3,54.4,42.8,99.7,96.7,99.5c54.4-0.2,96.9-42.2,97-96.7
				C546,454,508.3,404.4,447.9,404z"/>
			<path d="M348.2,281.1c-0.5,7-1.7,14-3.3,20.8c-0.7,2.9-2.6,7.1-4.9,7.8c-6.9,1.9-7.6,7.6-9.8,12.6c-9.2,21.3-24.2,36.7-45.7,45.8
				c-6.6,2.8-12.6,2.7-19.1-0.1c-22.3-9.7-37.6-26.1-46.4-48.7c-1.6-4-2.7-8-7.8-9.4c-1.6-0.4-3.4-2.8-3.8-4.5
				c-1.9-10-3.7-20-4.7-30.1c-0.2-2,2.8-5.8,4.9-6.3c4.6-1.1,4.9-3.5,4.9-7.3c0-2.9,0-5.8-0.1-8.7h126v14.8
				C347.2,270.2,348.8,271.8,348.2,281.1z"/>
		</g>
	</g>
	<path class="st0" d="M234,164c0,3.7,0,6.9,0,10.1c0,5.8,0,11.5,0,17.3c0,4.5,2.8,7.8,6.9,8.2c4.7,0.5,8.5-3.1,8.6-8c0-11,0-22,0-33
		c0-3.7-0.4-3,2.9-4c4.3-1.3,8.7-2.2,13.1-3.2c1.7-0.4,1.9,0,1.9,2.1c0,16.3,0,32.6,0,48.9c0,2.8,0.8,5.2,3,6.9
		c2.5,1.9,5.3,2.2,8.1,0.8c3-1.5,4.3-4.1,4.3-7.3c0-10.3,0-20.5,0-30.8c0-6.3,0.1-12.7,0-19c0-1.7,0.7-1.9,2-1.6
		c4.7,1.1,9.3,2.3,14,3.4c1.5,0.3,1.8,1.2,1.8,2.6c-0.1,11.3,0,22.5,0,33.8c0,4.4,2.5,7.5,6.5,8.3c4.7,0.9,9-2.9,9-7.9
		c0-8.5,0-17.1,0-25.6c0-0.5,0-1.1,0-2.2c2.8,2.3,5.3,4.2,7.5,6.4c11.4,10.9,18.3,24.2,20.8,39.8c0.3,1.7,0.4,3.5,0.6,5.3
		c0.1,0.9,0.5,1.4,1.5,1.3c1.1-0.1,2.2,0,3.3,0c2.7,0.1,4.6,1.9,4.6,4.6c0,1.6,0,3.2,0,4.8c0,3.5-1.9,5.4-5.3,5.4
		c-15.9,0-31.7,0-47.6,0c-32.7,0-65.5,0-98.2,0c-0.9,0-1.8,0-2.7-0.1c-2.3-0.3-4.1-2.2-4.2-4.5c-0.1-1.8,0-3.7,0-5.5
		c0-2.8,1.9-4.6,4.7-4.8c3.9-0.2,3.8-0.2,4.3-4.1c2.3-17.7,9.9-32.5,23.2-44.4C230.3,166.9,232,165.7,234,164z"/>
	<path class="st1" d="M477.9,481.4c-4.4,0-8.9,0.2-13.3-0.1c-1.1-0.1-2.2-1.5-3.1-2.5c-5.8-6.8-17.4-9.3-25.1-4.7
		c-2.3,1.4-4.5,4.8-4.6,7.2c0,2.1,2.8,5.3,5,6.2c5.8,2.2,12,3.2,18,5c4.3,1.3,8.7,2.6,12.8,4.4c18.3,8.3,16.7,31.1,3,40.6
		c-2,1.4-4.2,2.8-6.6,3.5c-3.7,1.1-6,2.8-5.7,7.1c0.1,0.8-1.8,2.6-2.9,2.6c-5.8,0.3-11.5,0.3-17.3,0c-1.2-0.1-3.2-2.3-3.1-3.4
		c0.4-4.5-1.9-5.9-5.5-7.7c-8.9-4.5-14.8-11.6-16.1-22.8c4.9,0,9.4-0.2,13.8,0.1c1,0.1,2.1,1.6,2.8,2.7c6.1,9.4,21.2,12.7,30.7,6.7
		c6.5-4.1,6.5-12.1-0.5-15.3c-5.3-2.4-11.3-3.5-16.9-5.2c-4.8-1.4-9.6-2.7-14.2-4.5c-8.6-3.4-13.7-9.9-13.8-19.3
		c0-9.4,4.6-16.4,12.8-20.8c3.4-1.8,7.4-2.8,6.8-8c-0.1-0.6,1.7-1.9,2.6-1.9c6.1-0.2,12.2-0.3,18.2,0c1.1,0.1,3.1,2,3.1,3
		c0,3.7,2.1,5,4.9,6.4C473,465.4,478.1,473,477.9,481.4z"/>
</g>
</svg>
