<?xml version="1.0" encoding="utf-8"?>
<!-- Generator: Adobe Illustrator 16.0.0, SVG Export Plug-In . SVG Version: 6.00 Build 0)  -->
<!DOCTYPE svg PUBLIC "-//W3C//DTD SVG 1.1//EN" "http://www.w3.org/Graphics/SVG/1.1/DTD/svg11.dtd">
<svg version="1.1" id="Layer_1" xmlns="http://www.w3.org/2000/svg" xmlns:xlink="http://www.w3.org/1999/xlink" x="0px" y="0px"
	 width="623.622px" height="623.62px" viewBox="0 0 623.622 623.62" enable-background="new 0 0 623.622 623.62"
	 xml:space="preserve">
<g>
	<path fill-rule="evenodd" clip-rule="evenodd" d="M165.14,397.356c7.549-52.614,44.733-90.278,98.081-95.441
		c34.107-3.304,69.197-2.768,103.259,1.151c52.883,6.076,92.216,53.043,93.158,106.164c0.472,26.376-0.396,52.781,0.393,79.145
		c0.309,10.27-2.962,15.344-12.54,19.076c-50.174,19.524-102.406,26.173-155.337,20.556c-38.844-4.114-77.05-14.085-115.635-20.925
		c-10.869-1.927-13.6-7.483-12.935-17.753c0.862-13.37,0.212-26.84,0.212-40.275"/>
	<path fill-rule="evenodd" clip-rule="evenodd" d="M398.891,210.307c-1.438,47.843-41.636,86.098-89.076,84.708
		c-48.043-1.39-86.673-41.611-85.132-88.679c0.122-3.5,0.42-6.954,0.942-10.329H398.02
		C398.742,200.671,399.04,205.465,398.891,210.307z"/>
	<path fill-rule="evenodd" clip-rule="evenodd" fill="#F5D850" d="M411.485,189.216c-0.023,4.418-2.335,6.78-6.703,6.78h-6.753
		c-17.776,0.023-35.553,0-53.329,0H220.766c-1.118,0-2.26,0.048-3.352-0.077c-2.904-0.323-5.141-2.708-5.263-5.635
		c-0.077-2.308-0.054-4.615-0.023-6.954c0.047-3.47,2.406-5.856,5.934-6.005c4.865-0.204,4.838-0.204,5.486-5.117
		c2.88-22.266,12.535-41.015,29.318-55.982c1.911-1.735,3.998-3.279,6.503-5.337v12.761c0,5.236-0.024,10.477-0.024,15.714
		c0,2.038,0,4.072,0.024,6.106c0.054,5.635,3.578,9.81,8.718,10.381c5.88,0.668,10.799-3.851,10.799-10.131
		c0.024-5.862,0.024-11.718,0.024-17.579v-24.003c0.024-4.646-0.471-3.828,3.599-5.044c5.412-1.611,10.975-2.779,16.485-4.019
		c2.135-0.472,2.409-0.048,2.409,2.581v24.552c0,12.414,0,24.831-0.027,37.215c0,3.478,0.993,6.507,3.826,8.689
		c3.178,2.433,6.678,2.779,10.25,1.043c3.799-1.838,5.439-5.164,5.462-9.213c0.051-12.685,0.027-25.368,0.027-38.058v-0.816
		c0-7.973,0.075-15.964-0.05-23.936c-0.024-2.082,0.918-2.458,2.558-2.082c5.885,1.438,11.769,2.928,17.675,4.342
		c1.813,0.447,2.308,1.49,2.308,3.328c-0.048,8.241-0.048,16.459-0.048,24.706c0,5.98,0,11.938,0.024,17.943
		c0,5.541,3.179,9.511,8.17,10.43c5.934,1.068,11.342-3.601,11.372-9.929v-7.496c0.024-8.293,0-16.59,0.024-24.854v-2.756
		c3.473,2.929,6.628,5.314,9.484,8.045c14.422,13.758,23.086,30.562,26.289,50.199c0.373,2.182,0.548,4.443,0.746,6.655
		c0.125,1.193,0.698,1.711,1.912,1.665c1.416-0.048,2.806-0.024,4.194,0c3.429,0.047,5.809,2.433,5.862,5.809
		C411.485,185.167,411.508,187.182,411.485,189.216z"/>
</g>
</svg>
