<?xml version="1.0" encoding="utf-8"?>
<!-- Generator: Adobe Illustrator 16.0.0, SVG Export Plug-In . SVG Version: 6.00 Build 0)  -->
<!DOCTYPE svg PUBLIC "-//W3C//DTD SVG 1.1//EN" "http://www.w3.org/Graphics/SVG/1.1/DTD/svg11.dtd">
<svg version="1.1" id="Layer_1" xmlns="http://www.w3.org/2000/svg" xmlns:xlink="http://www.w3.org/1999/xlink" x="0px" y="0px"
	 width="623.622px" height="623.62px" viewBox="0 0 623.622 623.62" enable-background="new 0 0 623.622 623.62"
	 xml:space="preserve">
<g>
	<g>
		<g>
			<path fill-rule="evenodd" clip-rule="evenodd" d="M264.189,319.526c1.713-1.846,19.104-20.268,21.809-23.443
				c16.076,21.22,41.75,22.868,63.637,34.608c-21.254,18.081-38.152,38.726-44.729,65.839c-6.615,27.169-1.639,52.991,11.99,78.584
				c-3.254,0.27-5.578,0.664-7.898,0.664c-60.543,0.018-121.082,0.052-181.617-0.021c-18.42-0.014-29.869-13.136-26.801-31.452
				c4.232-25.175,9.186-50.246,13.934-75.337c0.537-2.903,1.855-5.626,2.66-8.495c2.986-10.607,9.262-17.596,19.992-21.503
				c20.797-7.581,41.303-15.968,61.811-24.32c4.119-1.666,7.947-4.317,11.512-7.023c4.133-3.136,7.824-6.845,12.295-10.844
				c7.43,8.011,14.668,15.251,21.102,23.153L264.189,319.526z"/>
			<path fill-rule="evenodd" clip-rule="evenodd" d="M427.146,328.542c-58.553-0.37-96.266,47.188-97.371,94.664
				c-1.254,54.369,42.838,99.711,96.652,99.506c54.35-0.204,96.883-42.244,97.047-96.695
				C525.318,378.499,487.525,328.911,427.146,328.542z"/>
			<path fill-rule="evenodd" clip-rule="evenodd" d="M327.496,205.646c-0.449,6.996-1.723,14.014-3.344,20.846
				c-0.676,2.914-2.648,7.139-4.904,7.775c-6.852,1.928-7.633,7.635-9.805,12.64c-9.213,21.273-24.191,36.704-45.689,45.834
				c-6.568,2.788-12.619,2.688-19.104-0.145c-22.324-9.745-37.586-26.14-46.367-48.686c-1.582-4.021-2.709-8.044-7.838-9.354
				c-1.578-0.391-3.445-2.771-3.754-4.535c-1.906-9.971-3.695-20.005-4.721-30.119c-0.186-2.012,2.814-5.807,4.885-6.279
				c4.637-1.065,4.861-3.526,4.881-7.345c0.02-2.871-0.02-5.765-0.061-8.655h125.953v14.811
				C326.513,194.713,328.113,196.311,327.496,205.646z"/>
		</g>
	</g>
	<path fill-rule="evenodd" clip-rule="evenodd" fill="#F5D850" d="M213.246,113.579c0,3.698,0.004,6.899,0,10.104
		c0,5.771-0.035,11.543,0,17.313c0.033,4.467,2.842,7.76,6.91,8.224c4.66,0.531,8.547-3.067,8.563-8.036
		c0.033-10.987,0.008-21.976,0.02-32.963c0.004-3.675-0.373-3.033,2.854-3.992c4.287-1.277,8.684-2.207,13.055-3.185
		c1.691-0.38,1.912-0.046,1.912,2.052c-0.008,16.317-0.008,32.633-0.023,48.948c-0.006,2.755,0.781,5.161,3.029,6.881
		c2.52,1.927,5.297,2.22,8.139,0.84c3.01-1.462,4.311-4.09,4.324-7.316c0.043-10.269,0.01-20.534,0.016-30.801
		c0-6.328,0.055-12.654-0.029-18.979c-0.023-1.652,0.713-1.948,2.008-1.636c4.678,1.122,9.336,2.314,14.014,3.437
		c1.451,0.349,1.844,1.186,1.836,2.635c-0.053,11.268-0.045,22.532-0.021,33.798c0.008,4.404,2.514,7.546,6.477,8.266
		c4.705,0.851,8.984-2.854,9-7.87c0.035-8.548,0.02-17.095,0.023-25.639c0-0.539,0-1.075,0-2.171c2.756,2.315,5.27,4.203,7.529,6.36
		c11.422,10.902,18.297,24.22,20.834,39.785c0.283,1.747,0.42,3.519,0.598,5.282c0.092,0.941,0.539,1.364,1.51,1.32
		c1.109-0.051,2.221-0.03,3.33-0.008c2.701,0.052,4.588,1.924,4.633,4.602c0.027,1.61,0.031,3.221,0.023,4.828
		c-0.027,3.509-1.852,5.375-5.316,5.378c-15.873,0.008-31.746,0-47.619,0c-32.742-0.003-65.484-0.002-98.227-0.003
		c-0.887,0-1.783,0.043-2.662-0.058c-2.299-0.259-4.074-2.159-4.158-4.479c-0.068-1.829-0.045-3.663-0.021-5.494
		c0.041-2.769,1.912-4.648,4.697-4.765c3.863-0.156,3.848-0.16,4.348-4.062c2.281-17.652,9.934-32.498,23.238-44.373
		C209.611,116.439,211.251,115.206,213.246,113.579z"/>
	<g>
		<path fill-rule="evenodd" clip-rule="evenodd" fill="#0CB4AE" d="M467.623,451.431c1.84,7.191-2.072,10.668-10.244,9.152
			c0.434,2.672-0.203,4.977-2.479,6.576c-2.199,1.551-4.629,1.193-6.908,0.615c-0.266,1.413-0.266,2.826-0.787,3.971
			c-1.125,2.486-4.346,3.712-7.488,2.538c-3.215-1.21-6.211-2.981-9.252-4.48c0.789-1.875,1.49-3.239,1.936-4.671
			c0.754-2.369,0.326-4.056-1.059-4.977c-1.443-0.989-3.053-0.766-5.07,0.682c-0.436,0.324-0.863,0.682-1.578,1.229
			c0.613-1.739,1.227-3.139,1.627-4.604c0.309-1.174,0.514-2.402,0.506-3.612c-0.021-3.833-3.109-5.607-6.416-3.579
			c-1.375,0.837-2.488,2.114-3.76,3.236c0.305-2.672,1.115-5.742-2.07-7.257c-2.949-1.398-5.266,0.289-7.521,2.623
			c0.051-0.681,0.033-1.056,0.107-1.412c0.361-1.842-0.016-3.479-1.506-4.619c-1.584-1.21-3.531-1.568-5.182-0.528
			c-1.967,1.243-3.654,2.946-5.555,4.533c-3.176-2.506-6.691-5.131-10.057-7.926c-1.736-1.433-3.711-2.096-5.814-2.452
			c-1.246-0.204-1.58-0.767-1.461-1.978c1.264-11.572,5.76-21.641,13.914-30.01c0.357-0.375,1.09-0.697,1.551-0.613
			c2.625,0.509,5.25,1.073,7.83,1.791c1.242,0.355,2.389,1.07,3.863,1.753c-1.646,1.533-2.98,2.777-4.309,4.039
			c-3.578,3.408-2.492,8.52,2.184,10.037c3.648,1.176,7.115,0.751,10.217-1.688c1.148-0.904,2.387-1.721,3.441-2.726
			c4.664-4.413,10.006-4.313,15.584-2.438c1.551,0.526,3.076,1.244,4.424,2.164c11.229,7.653,22.416,15.337,33.588,23.041
			c1.406,0.969,2.709,2.096,3.979,3.238c2.354,2.111,2.67,4.513,1.006,7.036c-1.533,2.37-3.545,2.831-6.551,1.568
			C468.148,451.617,467.97,451.567,467.623,451.431z"/>
		<path fill-rule="evenodd" clip-rule="evenodd" fill="#0CB4AE" d="M470.748,405.009c8.58,5.504,13.404,19.173,12.715,28.598
			c-3.887,0.238-7.252,1.771-10.127,4.465c-0.332,0.309-1.453,0.136-1.955-0.205c-7.85-5.214-15.654-10.481-23.469-15.728
			c-3.451-2.337-6.893-4.653-10.352-6.974c-8.041-5.399-15.74-5.179-23.262,0.856c-2.881,2.3-5.742,4.413-9.705,3.816
			c-1.791-0.255-3.314-0.906-3.928-2.815c-0.5-1.598-0.256-2.98,1.063-4.137c4.039-3.563,8.098-7.109,12.061-10.753
			c1.672-1.533,3.588-1.877,5.727-1.961c4.805-0.188,9.625-0.666,14.439-0.683c2.26,0,4.627,0.513,6.74,1.311
			c5.191,1.995,10.285,4.228,15.379,6.478C461.443,409.628,466.488,410.124,470.748,405.009z"/>
		<path fill-rule="evenodd" clip-rule="evenodd" fill="#0CB4AE" d="M375.998,391.274c4.184,2.796,8.383,5.592,12.748,8.49
			c-10.166,11.312-15.934,24.283-15.961,39.67c-0.529-0.204-0.918-0.323-1.295-0.513c-4.168-2.164-8.348-4.293-12.498-6.527
			c-0.514-0.271-1.143-1.056-1.09-1.533c0.93-9.611,2.896-18.95,7.514-27.538C368.273,397.988,372.003,393.729,375.998,391.274z"/>
		<path fill-rule="evenodd" clip-rule="evenodd" fill="#0CB4AE" d="M488.251,438.972c-0.793-14.893-2.244-29.225-15.568-38.97
			c3.959-2.727,7.854-5.438,11.834-8.046c0.35-0.219,1.346,0.171,1.822,0.547c7.133,5.742,11.809,13.121,14.525,21.795
			c1.611,5.147,2.244,10.481,2.426,15.883c0.023,1.212-0.393,1.875-1.496,2.368C497.324,434.612,492.876,436.775,488.251,438.972z"
			/>
		<path fill-rule="evenodd" clip-rule="evenodd" fill="#0CB4AE" d="M425.146,454.432c-1.021,5.47-2.797,10.019-6.637,13.478
			c-2.107,1.894-4.73,0.939-5.141-1.872c-0.168-1.161,0.027-2.457,0.385-3.579c1.25-3.955,3.154-7.583,6.688-9.97
			c0.826-0.563,2.338-0.854,3.178-0.479C424.421,452.368,424.765,453.767,425.146,454.432z"/>
		<path fill-rule="evenodd" clip-rule="evenodd" fill="#0CB4AE" d="M415.185,450.749c-0.666,4.652-2.027,8.231-4.865,11.178
			c-1.211,1.263-2.693,1.722-4.34,1.041c-1.688-0.682-2.096-2.25-1.871-3.817c0.588-4.09,2.131-7.839,5.469-10.444
			c0.877-0.684,2.656-0.956,3.662-0.547C414.214,448.552,414.716,450.084,415.185,450.749z"/>
		<path fill-rule="evenodd" clip-rule="evenodd" fill="#0CB4AE" d="M405.554,447.545c-0.492,3.032-1.686,5.316-3.746,7.108
			c-1.318,1.139-2.912,1.616-4.584,0.73c-1.703-0.901-1.814-2.505-1.582-4.139c0.408-2.743,1.666-5.098,4.102-6.41
			c1.066-0.58,2.799-0.714,3.895-0.255C404.537,444.957,404.925,446.522,405.554,447.545z"/>
		<path fill-rule="evenodd" clip-rule="evenodd" fill="#0CB4AE" d="M431.365,463.292c-0.824,3.715-2.164,6.866-4.984,9.15
			c-0.553,0.459-1.803,0.53-2.496,0.238c-0.57-0.254-1.105-1.313-1.113-2.01c-0.053-3.749,1.75-6.664,4.658-8.844
			c0.689-0.513,1.984-0.513,2.906-0.293C430.812,461.639,431.056,462.729,431.365,463.292z"/>
	</g>
</g>
</svg>
