<?xml version="1.0" encoding="utf-8"?>
<!-- Generator: Adobe Illustrator 19.0.0, SVG Export Plug-In . SVG Version: 6.00 Build 0)  -->
<svg version="1.1" id="Layer_1" xmlns="http://www.w3.org/2000/svg" xmlns:xlink="http://www.w3.org/1999/xlink" x="0px" y="0px"
	 viewBox="6 85.4 623.6 623.6" style="enable-background:new 6 85.4 623.6 623.6;" xml:space="preserve">
<style type="text/css">
	.st0{fill:#F5D850;}
	.st1{fill:#0CB4AE;}
</style>
<g>
	<g>
		<g>
			<path d="M270.2,404.9c1.7-1.8,19.1-20.3,21.8-23.4c16.1,21.2,41.8,22.9,63.6,34.6c-21.3,18.1-38.2,38.7-44.7,65.8
				c-6.6,27.2-1.6,53,12,78.6c-3.3,0.3-5.6,0.7-7.9,0.7c-60.5,0-121.1,0.1-181.6,0c-18.4,0-29.9-13.1-26.8-31.5
				c4.2-25.2,9.2-50.2,13.9-75.3c0.5-2.9,1.9-5.6,2.7-8.5c3-10.6,9.3-17.6,20-21.5c20.8-7.6,41.3-16,61.8-24.3
				c4.1-1.7,7.9-4.3,11.5-7c4.1-3.1,7.8-6.8,12.3-10.8c7.4,8,14.7,15.3,21.1,23.2L270.2,404.9z"/>
			<path d="M433.1,413.9c-58.6-0.4-96.3,47.2-97.4,94.7c-1.3,54.4,42.8,99.7,96.7,99.5c54.4-0.2,96.9-42.2,97-96.7
				C531.3,463.9,493.5,414.3,433.1,413.9z"/>
			<path d="M333.5,291c-0.4,7-1.7,14-3.3,20.8c-0.7,2.9-2.6,7.1-4.9,7.8c-6.9,1.9-7.6,7.6-9.8,12.6c-9.2,21.3-24.2,36.7-45.7,45.8
				c-6.6,2.8-12.6,2.7-19.1-0.1c-22.3-9.7-37.6-26.1-46.4-48.7c-1.6-4-2.7-8-7.8-9.4c-1.6-0.4-3.4-2.8-3.8-4.5
				c-1.9-10-3.7-20-4.7-30.1c-0.2-2,2.8-5.8,4.9-6.3c4.6-1.1,4.9-3.5,4.9-7.3c0-2.9,0-5.8-0.1-8.7h126v14.8
				C332.5,280.1,334.1,281.7,333.5,291z"/>
		</g>
	</g>
	<path class="st0" d="M219.2,174c0,3.7,0,6.9,0,10.1c0,5.8,0,11.5,0,17.3c0,4.5,2.8,7.8,6.9,8.2c4.7,0.5,8.5-3.1,8.6-8
		c0-11,0-22,0-33c0-3.7-0.4-3,2.9-4c4.3-1.3,8.7-2.2,13.1-3.2c1.7-0.4,1.9,0,1.9,2.1c0,16.3,0,32.6,0,48.9c0,2.8,0.8,5.2,3,6.9
		c2.5,1.9,5.3,2.2,8.1,0.8c3-1.5,4.3-4.1,4.3-7.3c0-10.3,0-20.5,0-30.8c0-6.3,0.1-12.7,0-19c0-1.7,0.7-1.9,2-1.6
		c4.7,1.1,9.3,2.3,14,3.4c1.5,0.3,1.8,1.2,1.8,2.6c-0.1,11.3,0,22.5,0,33.8c0,4.4,2.5,7.5,6.5,8.3c4.7,0.9,9-2.9,9-7.9
		c0-8.5,0-17.1,0-25.6c0-0.5,0-1.1,0-2.2c2.8,2.3,5.3,4.2,7.5,6.4c11.4,10.9,18.3,24.2,20.8,39.8c0.3,1.7,0.4,3.5,0.6,5.3
		c0.1,0.9,0.5,1.4,1.5,1.3c1.1-0.1,2.2,0,3.3,0c2.7,0.1,4.6,1.9,4.6,4.6c0,1.6,0,3.2,0,4.8c0,3.5-1.9,5.4-5.3,5.4
		c-15.9,0-31.7,0-47.6,0c-32.7,0-65.5,0-98.2,0c-0.9,0-1.8,0-2.7-0.1c-2.3-0.3-4.1-2.2-4.2-4.5c-0.1-1.8,0-3.7,0-5.5
		c0-2.8,1.9-4.6,4.7-4.8c3.9-0.2,3.8-0.2,4.3-4.1c2.3-17.7,9.9-32.5,23.2-44.4C215.6,176.8,217.3,175.6,219.2,174z"/>
	<g>
		<path class="st1" d="M473.6,536.8c1.8,7.2-2.1,10.7-10.2,9.2c0.4,2.7-0.2,5-2.5,6.6c-2.2,1.6-4.6,1.2-6.9,0.6
			c-0.3,1.4-0.3,2.8-0.8,4c-1.1,2.5-4.3,3.7-7.5,2.5c-3.2-1.2-6.2-3-9.3-4.5c0.8-1.9,1.5-3.2,1.9-4.7c0.8-2.4,0.3-4.1-1.1-5
			c-1.4-1-3.1-0.8-5.1,0.7c-0.4,0.3-0.9,0.7-1.6,1.2c0.6-1.7,1.2-3.1,1.6-4.6c0.3-1.2,0.5-2.4,0.5-3.6c0-3.8-3.1-5.6-6.4-3.6
			c-1.4,0.8-2.5,2.1-3.8,3.2c0.3-2.7,1.1-5.7-2.1-7.3c-2.9-1.4-5.3,0.3-7.5,2.6c0.1-0.7,0-1.1,0.1-1.4c0.4-1.8,0-3.5-1.5-4.6
			c-1.6-1.2-3.5-1.6-5.2-0.5c-2,1.2-3.7,2.9-5.6,4.5c-3.2-2.5-6.7-5.1-10.1-7.9c-1.7-1.4-3.7-2.1-5.8-2.5c-1.2-0.2-1.6-0.8-1.5-2
			c1.3-11.6,5.8-21.6,13.9-30c0.4-0.4,1.1-0.7,1.6-0.6c2.6,0.5,5.3,1.1,7.8,1.8c1.2,0.4,2.4,1.1,3.9,1.8c-1.6,1.5-3,2.8-4.3,4
			c-3.6,3.4-2.5,8.5,2.2,10c3.6,1.2,7.1,0.8,10.2-1.7c1.1-0.9,2.4-1.7,3.4-2.7c4.7-4.4,10-4.3,15.6-2.4c1.6,0.5,3.1,1.2,4.4,2.2
			c11.2,7.7,22.4,15.3,33.6,23c1.4,1,2.7,2.1,4,3.2c2.4,2.1,2.7,4.5,1,7c-1.5,2.4-3.5,2.8-6.6,1.6C474.1,537,474,536.9,473.6,536.8z
			"/>
		<path class="st1" d="M476.7,490.4c8.6,5.5,13.4,19.2,12.7,28.6c-3.9,0.2-7.3,1.8-10.1,4.5c-0.3,0.3-1.5,0.1-2-0.2
			c-7.9-5.2-15.7-10.5-23.5-15.7c-3.5-2.3-6.9-4.7-10.4-7c-8-5.4-15.7-5.2-23.3,0.9c-2.9,2.3-5.7,4.4-9.7,3.8
			c-1.8-0.3-3.3-0.9-3.9-2.8c-0.5-1.6-0.3-3,1.1-4.1c4-3.6,8.1-7.1,12.1-10.8c1.7-1.5,3.6-1.9,5.7-2c4.8-0.2,9.6-0.7,14.4-0.7
			c2.3,0,4.6,0.5,6.7,1.3c5.2,2,10.3,4.2,15.4,6.5C467.4,495,472.5,495.5,476.7,490.4z"/>
		<path class="st1" d="M382,476.7c4.2,2.8,8.4,5.6,12.7,8.5c-10.2,11.3-15.9,24.3-16,39.7c-0.5-0.2-0.9-0.3-1.3-0.5
			c-4.2-2.2-8.3-4.3-12.5-6.5c-0.5-0.3-1.1-1.1-1.1-1.5c0.9-9.6,2.9-19,7.5-27.5C374.3,483.4,378,479.1,382,476.7z"/>
		<path class="st1" d="M494.3,524.4c-0.8-14.9-2.2-29.2-15.6-39c4-2.7,7.9-5.4,11.8-8c0.4-0.2,1.3,0.2,1.8,0.5
			c7.1,5.7,11.8,13.1,14.5,21.8c1.6,5.1,2.2,10.5,2.4,15.9c0,1.2-0.4,1.9-1.5,2.4C503.3,520,498.9,522.2,494.3,524.4z"/>
		<path class="st1" d="M431.1,539.8c-1,5.5-2.8,10-6.6,13.5c-2.1,1.9-4.7,0.9-5.1-1.9c-0.2-1.2,0-2.5,0.4-3.6c1.3-4,3.2-7.6,6.7-10
			c0.8-0.6,2.3-0.9,3.2-0.5C430.4,537.7,430.8,539.1,431.1,539.8z"/>
		<path class="st1" d="M421.2,536.1c-0.7,4.7-2,8.2-4.9,11.2c-1.2,1.3-2.7,1.7-4.3,1c-1.7-0.7-2.1-2.3-1.9-3.8
			c0.6-4.1,2.1-7.8,5.5-10.4c0.9-0.7,2.7-1,3.7-0.5C420.2,533.9,420.7,535.5,421.2,536.1z"/>
		<path class="st1" d="M411.6,532.9c-0.5,3-1.7,5.3-3.7,7.1c-1.3,1.1-2.9,1.6-4.6,0.7c-1.7-0.9-1.8-2.5-1.6-4.1
			c0.4-2.7,1.7-5.1,4.1-6.4c1.1-0.6,2.8-0.7,3.9-0.3C410.5,530.3,410.9,531.9,411.6,532.9z"/>
		<path class="st1" d="M437.4,548.7c-0.8,3.7-2.2,6.9-5,9.2c-0.6,0.5-1.8,0.5-2.5,0.2c-0.6-0.3-1.1-1.3-1.1-2
			c-0.1-3.7,1.8-6.7,4.7-8.8c0.7-0.5,2-0.5,2.9-0.3C436.8,547,437.1,548.1,437.4,548.7z"/>
	</g>
</g>
</svg>
