<?xml version="1.0" encoding="utf-8"?>
<!-- Generator: Adobe Illustrator 16.0.0, SVG Export Plug-In . SVG Version: 6.00 Build 0)  -->
<!DOCTYPE svg PUBLIC "-//W3C//DTD SVG 1.1//EN" "http://www.w3.org/Graphics/SVG/1.1/DTD/svg11.dtd">
<svg version="1.1" id="Layer_1" xmlns="http://www.w3.org/2000/svg" xmlns:xlink="http://www.w3.org/1999/xlink" x="0px" y="0px"
	 width="623.622px" height="623.62px" viewBox="0 0 623.622 623.62" enable-background="new 0 0 623.622 623.62"
	 xml:space="preserve">
<g>
	<g>
		<g>
			<path fill-rule="evenodd" clip-rule="evenodd" d="M256.913,309.611c1.713-1.845,19.105-20.266,21.81-23.441
				c16.076,21.218,41.748,22.867,63.638,34.607c-21.255,18.08-38.154,38.726-44.731,65.839c-6.614,27.168-1.639,52.99,11.99,78.585
				c-3.252,0.269-5.575,0.663-7.896,0.663c-60.544,0.018-121.081,0.052-181.617-0.021c-18.423-0.014-29.873-13.137-26.801-31.453
				c4.23-25.174,9.186-50.246,13.934-75.336c0.537-2.904,1.855-5.627,2.661-8.495c2.984-10.607,9.257-17.597,19.992-21.503
				c20.795-7.582,41.299-15.969,61.809-24.32c4.121-1.667,7.947-4.318,11.513-7.024c4.13-3.136,7.823-6.844,12.293-10.844
				c7.43,8.011,14.669,15.251,21.102,23.154L256.913,309.611z"/>
			<path fill-rule="evenodd" clip-rule="evenodd" d="M419.871,318.628c-58.555-0.37-96.265,47.188-97.373,94.664
				c-1.251,54.369,42.839,99.71,96.654,99.505c54.35-0.203,96.88-42.242,97.045-96.694
				C518.043,368.585,480.252,318.996,419.871,318.628z"/>
			<path fill-rule="evenodd" clip-rule="evenodd" d="M320.221,195.731c-0.452,6.997-1.723,14.013-3.344,20.845
				c-0.677,2.913-2.647,7.139-4.904,7.776c-6.853,1.928-7.633,7.634-9.807,12.639c-9.213,21.274-24.19,36.703-45.691,45.834
				c-6.566,2.789-12.619,2.688-19.102-0.144c-22.323-9.746-37.587-26.139-46.368-48.686c-1.58-4.021-2.708-8.045-7.837-9.354
				c-1.58-0.391-3.447-2.771-3.754-4.537c-1.908-9.969-3.693-20.004-4.72-30.118c-0.184-2.012,2.812-5.807,4.884-6.279
				c4.637-1.066,4.862-3.526,4.883-7.345c0.02-2.871-0.021-5.764-0.062-8.655h125.953v14.81
				C319.236,184.798,320.836,186.396,320.221,195.731z"/>
		</g>
	</g>
	<path fill-rule="evenodd" clip-rule="evenodd" fill="#F5D850" d="M205.971,103.665c0,3.699,0.002,6.9,0,10.104
		c-0.002,5.771-0.037,11.543,0.001,17.313c0.03,4.466,2.841,7.76,6.906,8.223c4.663,0.533,8.547-3.065,8.563-8.034
		c0.033-10.988,0.008-21.976,0.02-32.963c0.006-3.675-0.374-3.033,2.853-3.993c4.289-1.276,8.683-2.206,13.054-3.184
		c1.691-0.38,1.913-0.046,1.912,2.051c-0.006,16.318-0.007,32.633-0.023,48.948c-0.002,2.755,0.78,5.162,3.031,6.88
		c2.519,1.927,5.297,2.22,8.138,0.841c3.008-1.463,4.311-4.091,4.325-7.317c0.042-10.269,0.011-20.535,0.013-30.801
		c0-6.327,0.058-12.654-0.027-18.98c-0.022-1.651,0.714-1.948,2.007-1.635c4.676,1.122,9.337,2.314,14.013,3.437
		c1.453,0.348,1.844,1.186,1.836,2.634c-0.054,11.269-0.043,22.533-0.021,33.799c0.01,4.404,2.515,7.545,6.476,8.265
		c4.705,0.851,8.982-2.853,9.001-7.87c0.033-8.547,0.018-17.095,0.023-25.638c0-0.539,0-1.076,0-2.172
		c2.756,2.316,5.27,4.204,7.528,6.361c11.419,10.902,18.298,24.219,20.832,39.785c0.285,1.748,0.423,3.519,0.598,5.282
		c0.094,0.942,0.54,1.364,1.512,1.321c1.108-0.05,2.219-0.03,3.329-0.009c2.703,0.052,4.588,1.924,4.633,4.603
		c0.028,1.611,0.032,3.22,0.022,4.829c-0.025,3.508-1.849,5.374-5.316,5.378c-15.873,0.008-31.745,0-47.616,0
		c-32.744-0.004-65.485-0.002-98.229-0.004c-0.888,0-1.784,0.044-2.661-0.056c-2.299-0.26-4.074-2.16-4.161-4.479
		c-0.068-1.83-0.043-3.663-0.018-5.494c0.037-2.769,1.909-4.648,4.695-4.765c3.865-0.156,3.846-0.16,4.349-4.062
		c2.279-17.651,9.933-32.498,23.235-44.373C202.334,106.525,203.975,105.291,205.971,103.665z"/>
	<g>
		<path fill-rule="evenodd" clip-rule="evenodd" fill="#0CB4AE" d="M405.646,389.528c2.619,4.504,5.177,8.917,7.767,13.316
			c0.143,0.241,0.591,0.526,0.812,0.468c4.669-1.245,8.604,0.164,12.143,3.339c0.276-0.244,0.556-0.46,0.805-0.711
			c5.495-5.49,10.984-10.986,16.487-16.469c0.497-0.494,0.777-0.845,0.402-1.642c-1.931-4.097-0.719-8.482,3.06-11.43
			c3.521-2.746,7.872-2.732,11.418,0.035c3.489,2.724,4.809,7.028,3.311,10.806c-1.632,4.116-5.81,6.807-10.041,6.35
			c-1.029-0.114-2.008-0.639-3.029-0.887c-0.347-0.084-0.894-0.036-1.118,0.185c-5.923,5.871-11.82,11.77-17.695,17.689
			c-0.256,0.258-0.413,0.794-0.35,1.151c0.2,1.116,0.528,2.21,0.825,3.384c6.586,0,13.237,0,19.882,0
			c1.76-9.084,10.681-15.355,19.225-13.877c7.781,1.346,14.042,8.576,14.142,16.419c0.099,7.78-6.178,15.187-14.028,16.64
			c-8.378,1.548-17.58-4.591-19.359-13.921c-2.553,0-5.125,0-7.696,0c-4.048,0-8.096,0.018-12.143-0.017
			c-0.775-0.006-1.255,0.161-1.626,0.917c-1.085,2.213-2.782,3.91-4.9,5.329c0.89,3.263,1.776,6.522,2.668,9.78
			c1.368,4.999,2.778,9.986,4.077,15.007c0.25,0.961,0.716,1.165,1.573,1.273c4.299,0.541,7.929,3.979,8.618,8.213
			c0.632,3.896-1.08,6.861-4.061,9.127c-2.909,2.212-6.135,2.617-9.448,0.934c-5.738-2.915-8.393-10.514-1.974-16.113
			c0.288-0.251,0.555-0.832,0.466-1.163c-2.218-8.28-4.485-16.546-6.747-24.813c-0.032-0.113-0.108-0.216-0.211-0.414
			c-3.042,0.301-5.861-0.449-8.428-2.186c-0.198-0.137-0.635-0.111-0.861,0.017c-5.446,3.06-10.877,6.142-16.409,9.274
			c1.765,5.093,1.167,9.912-1.764,14.394c-2.295,3.511-5.453,5.969-9.478,7.184c-7.643,2.308-15.983-1.587-19.627-9.093
			c-3.509-7.226-1.157-15.729,5.68-20.6c6.632-4.725,15.82-4.414,22.656,3.529c5.22-2.955,10.464-5.924,15.561-8.806
			c-0.516-1.771-0.961-3.444-1.519-5.082c-0.104-0.305-0.635-0.555-1.016-0.661c-7.241-1.993-14.493-3.943-21.73-5.95
			c-0.725-0.202-1.083-0.058-1.517,0.525c-1.594,2.145-3.674,3.562-6.349,4.044c-6.438,1.164-12.615-5.817-10.667-12.066
			c1.347-4.312,5.614-7.387,9.907-7.14c4.133,0.238,8.127,3.893,8.905,8.219c0.147,0.815,0.425,1.224,1.293,1.452
			c6.981,1.854,13.946,3.771,20.917,5.669c0.308,0.084,0.625,0.13,0.756,0.157c1.295-1.829,2.514-3.549,3.866-5.461
			c-0.267-0.46-0.669-1.154-1.073-1.85c-2.155-3.706-4.316-7.411-6.461-11.127c-0.308-0.532-0.558-0.895-1.319-0.658
			c-8.836,2.735-17.637-3.094-20.34-10.949c-2.723-7.908,1.35-16.799,9.354-20.412c7.369-3.326,15.977-0.605,20.569,6.497
			c4.507,6.974,3.228,15.61-3.152,21.281C406.354,388.904,406.05,389.171,405.646,389.528z M407.247,376.208
			c0.014-6.784-4.765-11.554-11.573-11.551c-6.593,0.005-11.438,4.86-11.44,11.469c-0.003,6.695,4.809,11.541,11.482,11.563
			C402.411,387.713,407.233,382.91,407.247,376.208z M467.01,406.286c-6.661-0.074-11.461,4.601-11.591,11.287
			c-0.128,6.743,4.667,11.648,11.437,11.693c6.696,0.046,11.489-4.635,11.566-11.295
			C478.503,411.137,473.839,406.362,467.01,406.286z M377.448,452.547c6.753-0.016,11.485-4.747,11.495-11.492
			c0.009-6.717-4.785-11.498-11.512-11.489c-6.752,0.012-11.484,4.756-11.479,11.506C365.958,447.827,370.7,452.563,377.448,452.547
			z M409.91,415.575c-0.047,4.585,2.932,7.646,7.494,7.698c4.479,0.051,7.585-2.956,7.676-7.429c0.09-4.525-2.998-7.73-7.467-7.756
			C412.995,408.063,409.957,411.017,409.91,415.575z M431.368,457.838c-2.873,0.007-4.484,1.608-4.482,4.454
			c0.003,2.745,1.68,4.416,4.428,4.415c2.851-0.002,4.46-1.622,4.458-4.483C435.769,459.427,434.167,457.832,431.368,457.838z
			 M452.821,388.458c2.772,0,4.421-1.632,4.437-4.394c0.016-2.838-1.62-4.477-4.469-4.473c-2.815,0.004-4.393,1.57-4.41,4.381
			C448.363,386.838,449.967,388.455,452.821,388.458z M377.171,405.636c0.089-2.781-1.479-4.498-4.219-4.621
			c-2.792-0.125-4.595,1.526-4.683,4.297c-0.091,2.81,1.558,4.55,4.36,4.606C375.421,409.976,377.083,408.409,377.171,405.636z"/>
	</g>
</g>
</svg>
