<?xml version="1.0" encoding="utf-8"?>
<!-- Generator: Adobe Illustrator 19.0.0, SVG Export Plug-In . SVG Version: 6.00 Build 0)  -->
<svg version="1.1" id="Layer_1" xmlns="http://www.w3.org/2000/svg" xmlns:xlink="http://www.w3.org/1999/xlink" x="0px" y="0px"
	 viewBox="6 85.4 623.6 623.6" style="enable-background:new 6 85.4 623.6 623.6;" xml:space="preserve">
<style type="text/css">
	.st0{fill:#F5D850;}
	.st1{fill:#0CB4AE;}
</style>
<g>
	<g>
		<g>
			<path d="M262.9,395c1.7-1.8,19.1-20.3,21.8-23.4c16.1,21.2,41.7,22.9,63.6,34.6c-21.3,18.1-38.2,38.7-44.7,65.8
				c-6.6,27.2-1.6,53,12,78.6c-3.3,0.3-5.6,0.7-7.9,0.7c-60.5,0-121.1,0.1-181.6,0c-18.4,0-29.9-13.1-26.8-31.5
				c4.2-25.2,9.2-50.2,13.9-75.3c0.5-2.9,1.9-5.6,2.7-8.5c3-10.6,9.3-17.6,20-21.5c20.8-7.6,41.3-16,61.8-24.3
				c4.1-1.7,7.9-4.3,11.5-7c4.1-3.1,7.8-6.8,12.3-10.8c7.4,8,14.7,15.3,21.1,23.2L262.9,395z"/>
			<path d="M425.9,404c-58.6-0.4-96.3,47.2-97.4,94.7c-1.3,54.4,42.8,99.7,96.7,99.5c54.4-0.2,96.9-42.2,97-96.7
				C524,454,486.3,404.4,425.9,404z"/>
			<path d="M326.2,281.1c-0.5,7-1.7,14-3.3,20.8c-0.7,2.9-2.6,7.1-4.9,7.8c-6.9,1.9-7.6,7.6-9.8,12.6c-9.2,21.3-24.2,36.7-45.7,45.8
				c-6.6,2.8-12.6,2.7-19.1-0.1c-22.3-9.7-37.6-26.1-46.4-48.7c-1.6-4-2.7-8-7.8-9.4c-1.6-0.4-3.4-2.8-3.8-4.5
				c-1.9-10-3.7-20-4.7-30.1c-0.2-2,2.8-5.8,4.9-6.3c4.6-1.1,4.9-3.5,4.9-7.3c0-2.9,0-5.8-0.1-8.7h126v14.8
				C325.2,270.2,326.8,271.8,326.2,281.1z"/>
		</g>
	</g>
	<path class="st0" d="M212,164c0,3.7,0,6.9,0,10.1c0,5.8,0,11.5,0,17.3c0,4.5,2.8,7.8,6.9,8.2c4.7,0.5,8.5-3.1,8.6-8c0-11,0-22,0-33
		c0-3.7-0.4-3,2.9-4c4.3-1.3,8.7-2.2,13.1-3.2c1.7-0.4,1.9,0,1.9,2.1c0,16.3,0,32.6,0,48.9c0,2.8,0.8,5.2,3,6.9
		c2.5,1.9,5.3,2.2,8.1,0.8c3-1.5,4.3-4.1,4.3-7.3c0-10.3,0-20.5,0-30.8c0-6.3,0.1-12.7,0-19c0-1.7,0.7-1.9,2-1.6
		c4.7,1.1,9.3,2.3,14,3.4c1.5,0.3,1.8,1.2,1.8,2.6c-0.1,11.3,0,22.5,0,33.8c0,4.4,2.5,7.5,6.5,8.3c4.7,0.9,9-2.9,9-7.9
		c0-8.5,0-17.1,0-25.6c0-0.5,0-1.1,0-2.2c2.8,2.3,5.3,4.2,7.5,6.4c11.4,10.9,18.3,24.2,20.8,39.8c0.3,1.7,0.4,3.5,0.6,5.3
		c0.1,0.9,0.5,1.4,1.5,1.3c1.1-0.1,2.2,0,3.3,0c2.7,0.1,4.6,1.9,4.6,4.6c0,1.6,0,3.2,0,4.8c0,3.5-1.8,5.4-5.3,5.4
		c-15.9,0-31.7,0-47.6,0c-32.7,0-65.5,0-98.2,0c-0.9,0-1.8,0-2.7-0.1c-2.3-0.3-4.1-2.2-4.2-4.5c-0.1-1.8,0-3.7,0-5.5
		c0-2.8,1.9-4.6,4.7-4.8c3.9-0.2,3.8-0.2,4.3-4.1c2.3-17.7,9.9-32.5,23.2-44.4C208.3,166.9,210,165.7,212,164z"/>
	<g>
		<path class="st1" d="M411.6,474.9c2.6,4.5,5.2,8.9,7.8,13.3c0.1,0.2,0.6,0.5,0.8,0.5c4.7-1.2,8.6,0.2,12.1,3.3
			c0.3-0.2,0.6-0.5,0.8-0.7c5.5-5.5,11-11,16.5-16.5c0.5-0.5,0.8-0.8,0.4-1.6c-1.9-4.1-0.7-8.5,3.1-11.4c3.5-2.7,7.9-2.7,11.4,0
			c3.5,2.7,4.8,7,3.3,10.8c-1.6,4.1-5.8,6.8-10,6.4c-1-0.1-2-0.6-3-0.9c-0.3-0.1-0.9,0-1.1,0.2c-5.9,5.9-11.8,11.8-17.7,17.7
			c-0.3,0.3-0.4,0.8-0.4,1.2c0.2,1.1,0.5,2.2,0.8,3.4c6.6,0,13.2,0,19.9,0c1.8-9.1,10.7-15.4,19.2-13.9c7.8,1.3,14,8.6,14.1,16.4
			c0.1,7.8-6.2,15.2-14,16.6c-8.4,1.5-17.6-4.6-19.4-13.9c-2.6,0-5.1,0-7.7,0c-4,0-8.1,0-12.1,0c-0.8,0-1.3,0.2-1.6,0.9
			c-1.1,2.2-2.8,3.9-4.9,5.3c0.9,3.3,1.8,6.5,2.7,9.8c1.4,5,2.8,10,4.1,15c0.3,1,0.7,1.2,1.6,1.3c4.3,0.5,7.9,4,8.6,8.2
			c0.6,3.9-1.1,6.9-4.1,9.1c-2.9,2.2-6.1,2.6-9.4,0.9c-5.7-2.9-8.4-10.5-2-16.1c0.3-0.3,0.6-0.8,0.5-1.2c-2.2-8.3-4.5-16.5-6.7-24.8
			c0-0.1-0.1-0.2-0.2-0.4c-3,0.3-5.9-0.4-8.4-2.2c-0.2-0.1-0.6-0.1-0.9,0c-5.4,3.1-10.9,6.1-16.4,9.3c1.8,5.1,1.2,9.9-1.8,14.4
			c-2.3,3.5-5.5,6-9.5,7.2c-7.6,2.3-16-1.6-19.6-9.1c-3.5-7.2-1.2-15.7,5.7-20.6c6.6-4.7,15.8-4.4,22.7,3.5c5.2-3,10.5-5.9,15.6-8.8
			c-0.5-1.8-1-3.4-1.5-5.1c-0.1-0.3-0.6-0.6-1-0.7c-7.2-2-14.5-3.9-21.7-6c-0.7-0.2-1.1-0.1-1.5,0.5c-1.6,2.1-3.7,3.6-6.3,4
			c-6.4,1.2-12.6-5.8-10.7-12.1c1.3-4.3,5.6-7.4,9.9-7.1c4.1,0.2,8.1,3.9,8.9,8.2c0.1,0.8,0.4,1.2,1.3,1.5c7,1.9,13.9,3.8,20.9,5.7
			c0.3,0.1,0.6,0.1,0.8,0.2c1.3-1.8,2.5-3.5,3.9-5.5c-0.3-0.5-0.7-1.2-1.1-1.9c-2.2-3.7-4.3-7.4-6.5-11.1c-0.3-0.5-0.6-0.9-1.3-0.7
			c-8.8,2.7-17.6-3.1-20.3-10.9c-2.7-7.9,1.4-16.8,9.4-20.4c7.4-3.3,16-0.6,20.6,6.5c4.5,7,3.2,15.6-3.2,21.3
			C412.4,474.3,412,474.6,411.6,474.9z M413.2,461.6c0-6.8-4.8-11.6-11.6-11.6c-6.6,0-11.4,4.9-11.4,11.5c0,6.7,4.8,11.5,11.5,11.6
			C408.4,473.1,413.2,468.3,413.2,461.6z M473,491.7c-6.7-0.1-11.5,4.6-11.6,11.3c-0.1,6.7,4.7,11.6,11.4,11.7
			c6.7,0,11.5-4.6,11.6-11.3C484.5,496.5,479.8,491.7,473,491.7z M383.4,537.9c6.8,0,11.5-4.7,11.5-11.5c0-6.7-4.8-11.5-11.5-11.5
			c-6.8,0-11.5,4.8-11.5,11.5C372,533.2,376.7,537.9,383.4,537.9z M415.9,501c0,4.6,2.9,7.6,7.5,7.7c4.5,0.1,7.6-3,7.7-7.4
			c0.1-4.5-3-7.7-7.5-7.8C419,493.4,416,496.4,415.9,501z M437.4,543.2c-2.9,0-4.5,1.6-4.5,4.5c0,2.7,1.7,4.4,4.4,4.4
			c2.9,0,4.5-1.6,4.5-4.5C441.8,544.8,440.2,543.2,437.4,543.2z M458.8,473.8c2.8,0,4.4-1.6,4.4-4.4c0-2.8-1.6-4.5-4.5-4.5
			c-2.8,0-4.4,1.6-4.4,4.4C454.4,472.2,456,473.8,458.8,473.8z M383.2,491c0.1-2.8-1.5-4.5-4.2-4.6c-2.8-0.1-4.6,1.5-4.7,4.3
			c-0.1,2.8,1.6,4.5,4.4,4.6C381.4,495.4,383.1,493.8,383.2,491z"/>
	</g>
</g>
</svg>
