<?xml version="1.0" encoding="utf-8"?>
<!-- Generator: Adobe Illustrator 16.0.0, SVG Export Plug-In . SVG Version: 6.00 Build 0)  -->
<!DOCTYPE svg PUBLIC "-//W3C//DTD SVG 1.1//EN" "http://www.w3.org/Graphics/SVG/1.1/DTD/svg11.dtd">
<svg version="1.1" id="Layer_1" xmlns="http://www.w3.org/2000/svg" xmlns:xlink="http://www.w3.org/1999/xlink" x="0px" y="0px"
	 width="623.622px" height="623.62px" viewBox="0 0 623.622 623.62" enable-background="new 0 0 623.622 623.62"
	 xml:space="preserve">
<g>
	<g>
		<g>
			<path fill-rule="evenodd" clip-rule="evenodd" d="M256.913,319.526c1.713-1.846,19.105-20.268,21.81-23.443
				c16.076,21.22,41.748,22.868,63.638,34.608c-21.255,18.081-38.154,38.726-44.731,65.839c-6.614,27.169-1.639,52.991,11.99,78.584
				c-3.252,0.27-5.575,0.664-7.896,0.664c-60.544,0.018-121.081,0.052-181.617-0.021c-18.423-0.014-29.873-13.136-26.801-31.452
				c4.23-25.175,9.186-50.246,13.934-75.337c0.537-2.903,1.855-5.626,2.661-8.495c2.984-10.607,9.257-17.596,19.992-21.503
				c20.795-7.581,41.299-15.968,61.809-24.32c4.121-1.666,7.947-4.317,11.513-7.023c4.13-3.136,7.823-6.845,12.293-10.844
				c7.43,8.011,14.669,15.251,21.102,23.153L256.913,319.526z"/>
			<path fill-rule="evenodd" clip-rule="evenodd" d="M419.871,328.542c-58.555-0.37-96.265,47.188-97.373,94.664
				c-1.251,54.369,42.839,99.711,96.654,99.506c54.35-0.204,96.88-42.244,97.045-96.695
				C518.043,378.499,480.252,328.911,419.871,328.542z"/>
			<path fill-rule="evenodd" clip-rule="evenodd" d="M320.221,205.646c-0.452,6.996-1.723,14.014-3.344,20.846
				c-0.677,2.914-2.647,7.139-4.904,7.775c-6.853,1.928-7.633,7.635-9.807,12.64c-9.213,21.273-24.19,36.704-45.691,45.834
				c-6.566,2.788-12.619,2.688-19.102-0.145c-22.323-9.745-37.587-26.14-46.368-48.686c-1.58-4.021-2.708-8.044-7.837-9.354
				c-1.58-0.391-3.447-2.771-3.754-4.535c-1.908-9.971-3.693-20.005-4.72-30.119c-0.184-2.012,2.812-5.807,4.884-6.279
				c4.637-1.065,4.862-3.526,4.883-7.345c0.02-2.871-0.021-5.765-0.062-8.655h125.953v14.811
				C319.236,194.713,320.836,196.311,320.221,205.646z"/>
		</g>
		<g>
			<g>
				<path fill-rule="evenodd" clip-rule="evenodd" fill="#0CB4AE" d="M482.094,412.532c-1.743-8.53-6.279-15.437-12.659-21.191
					c-8.429-7.602-18.4-12.153-29.384-14.523c-16.809-3.655-33.243-2.469-49.121,4.367c-8.953,3.879-16.706,9.411-22.478,17.435
					c-3.572,4.976-5.873,10.476-6.533,16.604c-0.017,0.221-0.137,0.44-0.203,0.659v5.654c0.066,0.236,0.168,0.457,0.203,0.692
					c0.999,9.109,5.331,16.471,11.764,22.783c5.415,5.298,11.763,9.158,18.753,12.004c0.829,0.336,1.218,0.829,1.372,1.676
					c0.541,2.809,0.558,5.601,0.185,8.462c-0.389,3.13,1.389,4.823,4.486,4.264c2.319-0.423,4.638-0.897,6.922-1.488
					c6.145-1.54,12.188-3.401,17.537-6.976c0.288-0.201,0.744-0.287,1.099-0.287c5.095-0.032,10.139-0.626,15.099-1.691
					c10.833-2.317,20.768-6.57,29.248-13.813c6.534-5.602,11.391-12.339,13.406-20.869c0.372-1.573,0.609-3.167,0.914-4.757v-5.654
					C482.484,414.765,482.314,413.651,482.094,412.532z M465.474,434.909c-5.451,6.331-12.407,10.343-20.16,13.1
					c-7.752,2.776-15.775,3.963-24,3.842c-1.152-0.016-2.1,0.239-3.014,0.982c-3.893,3.184-8.599,4.638-13.321,6.008
					c-0.727-2.941-1.455-5.669-2.081-8.427c-0.168-0.814-0.575-1.17-1.304-1.438c-4.84-1.813-9.614-3.724-13.931-6.601
					c-5.314-3.523-9.868-7.771-12.678-13.562c-4.298-8.902-2.826-17.211,3.081-24.859c5.112-6.603,11.95-10.938,19.685-13.766
					c18.078-6.649,35.985-6.158,53.538,2.015c5.824,2.709,10.901,6.449,14.913,11.543
					C474.003,413.651,473.717,425.328,465.474,434.909z"/>
				<path fill-rule="evenodd" clip-rule="evenodd" fill="#0CB4AE" d="M422.198,425.39c-4.049,0-7.272-3.24-7.243-7.289
					c0.029-3.979,3.251-7.173,7.243-7.173c4.045,0,7.289,3.27,7.261,7.289C429.421,422.227,426.214,425.39,422.198,425.39z"/>
				<path fill-rule="evenodd" clip-rule="evenodd" fill="#0CB4AE" d="M403.288,418.11c0.017,4.071-3.184,7.279-7.258,7.279
					c-4.005,0-7.179-3.163-7.2-7.185c-0.03-4.052,3.195-7.291,7.244-7.277C400.059,410.928,403.275,414.135,403.288,418.11z"/>
				<path fill-rule="evenodd" clip-rule="evenodd" fill="#0CB4AE" d="M448.369,425.39c-4.082,0-7.238-3.18-7.238-7.279
					c0.007-3.989,3.208-7.183,7.208-7.183c4.058-0.014,7.26,3.207,7.244,7.277C455.566,422.227,452.375,425.39,448.369,425.39z"/>
			</g>
		</g>
	</g>
	<path fill-rule="evenodd" clip-rule="evenodd" fill="#F5D850" d="M205.971,113.579c0,3.698,0.002,6.899,0,10.104
		c-0.002,5.771-0.037,11.543,0.001,17.313c0.03,4.467,2.841,7.76,6.906,8.224c4.663,0.531,8.547-3.067,8.563-8.036
		c0.033-10.987,0.008-21.976,0.02-32.963c0.006-3.675-0.374-3.033,2.853-3.992c4.289-1.277,8.683-2.207,13.054-3.185
		c1.691-0.38,1.913-0.046,1.912,2.052c-0.006,16.317-0.007,32.633-0.023,48.948c-0.002,2.755,0.78,5.161,3.031,6.881
		c2.519,1.927,5.297,2.22,8.138,0.84c3.008-1.462,4.311-4.09,4.325-7.316c0.042-10.269,0.011-20.534,0.013-30.801
		c0-6.328,0.058-12.654-0.027-18.979c-0.022-1.652,0.714-1.948,2.007-1.636c4.676,1.122,9.337,2.314,14.013,3.437
		c1.453,0.349,1.844,1.186,1.836,2.635c-0.054,11.268-0.043,22.532-0.021,33.798c0.01,4.404,2.515,7.546,6.476,8.266
		c4.705,0.851,8.982-2.854,9.001-7.87c0.033-8.548,0.018-17.095,0.023-25.639c0-0.539,0-1.075,0-2.171
		c2.756,2.315,5.27,4.203,7.528,6.36c11.419,10.902,18.298,24.22,20.832,39.785c0.285,1.747,0.423,3.519,0.598,5.282
		c0.094,0.941,0.54,1.364,1.512,1.32c1.108-0.051,2.219-0.03,3.329-0.008c2.703,0.052,4.588,1.924,4.633,4.602
		c0.028,1.61,0.032,3.221,0.022,4.828c-0.025,3.509-1.849,5.375-5.316,5.378c-15.873,0.008-31.745,0-47.616,0
		c-32.744-0.003-65.485-0.002-98.229-0.003c-0.888,0-1.784,0.043-2.661-0.058c-2.299-0.259-4.074-2.159-4.161-4.479
		c-0.068-1.829-0.043-3.663-0.018-5.494c0.037-2.769,1.909-4.648,4.695-4.765c3.865-0.156,3.846-0.16,4.349-4.062
		c2.279-17.652,9.933-32.498,23.235-44.373C202.334,116.439,203.975,115.206,205.971,113.579z"/>
</g>
</svg>
