<?xml version="1.0" encoding="utf-8"?>
<!-- Generator: Adobe Illustrator 16.0.0, SVG Export Plug-In . SVG Version: 6.00 Build 0)  -->
<!DOCTYPE svg PUBLIC "-//W3C//DTD SVG 1.1//EN" "http://www.w3.org/Graphics/SVG/1.1/DTD/svg11.dtd">
<svg version="1.1" id="Layer_1" xmlns="http://www.w3.org/2000/svg" xmlns:xlink="http://www.w3.org/1999/xlink" x="0px" y="0px"
	 width="623.622px" height="623.62px" viewBox="0 0 623.622 623.62" enable-background="new 0 0 623.622 623.62"
	 xml:space="preserve">
<g>
	<g>
		<g>
			<path fill-rule="evenodd" clip-rule="evenodd" d="M278.911,309.611c1.713-1.845,19.104-20.266,21.809-23.441
				c16.076,21.218,41.748,22.867,63.639,34.607c-21.256,18.08-38.152,38.726-44.73,65.839c-6.613,27.168-1.641,52.99,11.988,78.585
				c-3.25,0.269-5.574,0.663-7.895,0.663c-60.545,0.018-121.082,0.052-181.617-0.021c-18.424-0.014-29.873-13.137-26.801-31.453
				c4.23-25.174,9.186-50.246,13.934-75.336c0.537-2.904,1.855-5.627,2.66-8.495c2.984-10.607,9.258-17.597,19.992-21.503
				c20.795-7.582,41.299-15.969,61.809-24.32c4.121-1.667,7.947-4.318,11.512-7.024c4.131-3.136,7.824-6.844,12.295-10.844
				c7.43,8.011,14.668,15.251,21.102,23.154L278.911,309.611z"/>
			<path fill-rule="evenodd" clip-rule="evenodd" d="M441.868,318.628c-58.555-0.37-96.264,47.188-97.373,94.664
				c-1.25,54.369,42.84,99.71,96.654,99.505c54.35-0.203,96.883-42.242,97.047-96.694
				C540.042,368.585,502.251,318.996,441.868,318.628z"/>
			<path fill-rule="evenodd" clip-rule="evenodd" d="M342.22,195.731c-0.453,6.997-1.725,14.013-3.346,20.845
				c-0.676,2.913-2.646,7.139-4.902,7.776c-6.854,1.928-7.635,7.634-9.807,12.639c-9.213,21.274-24.191,36.703-45.691,45.834
				c-6.566,2.789-12.619,2.688-19.102-0.144c-22.322-9.746-37.588-26.139-46.367-48.686c-1.58-4.021-2.709-8.045-7.838-9.354
				c-1.58-0.391-3.447-2.771-3.754-4.537c-1.91-9.969-3.695-20.004-4.721-30.118c-0.184-2.012,2.811-5.807,4.885-6.279
				c4.635-1.066,4.861-3.526,4.881-7.345c0.021-2.871-0.02-5.764-0.061-8.655h125.953v14.81
				C341.235,184.798,342.835,186.396,342.22,195.731z"/>
		</g>
	</g>
	<path fill-rule="evenodd" clip-rule="evenodd" fill="#F5D850" d="M227.97,103.665c0,3.699,0.002,6.9,0,10.104
		c-0.002,5.771-0.037,11.543,0,17.313c0.029,4.466,2.842,7.76,6.908,8.223c4.66,0.533,8.545-3.065,8.563-8.034
		c0.033-10.988,0.008-21.976,0.02-32.963c0.006-3.675-0.375-3.033,2.854-3.993c4.287-1.276,8.682-2.206,13.055-3.184
		c1.689-0.38,1.91-0.046,1.91,2.051c-0.006,16.318-0.006,32.633-0.021,48.948c-0.002,2.755,0.779,5.162,3.029,6.88
		c2.518,1.927,5.297,2.22,8.139,0.841c3.01-1.463,4.311-4.091,4.324-7.317c0.043-10.269,0.012-20.535,0.014-30.801
		c0-6.327,0.059-12.654-0.027-18.98c-0.021-1.651,0.715-1.948,2.008-1.635c4.676,1.122,9.336,2.314,14.014,3.437
		c1.451,0.348,1.844,1.186,1.836,2.634c-0.055,11.269-0.043,22.533-0.021,33.799c0.01,4.404,2.514,7.545,6.477,8.265
		c4.703,0.851,8.982-2.853,9-7.87c0.035-8.547,0.02-17.095,0.025-25.638c0-0.539,0-1.076,0-2.172
		c2.756,2.316,5.268,4.204,7.527,6.361c11.42,10.902,18.299,24.219,20.832,39.785c0.285,1.748,0.424,3.519,0.6,5.282
		c0.092,0.942,0.539,1.364,1.51,1.321c1.109-0.05,2.219-0.03,3.33-0.009c2.703,0.052,4.588,1.924,4.633,4.603
		c0.027,1.611,0.031,3.22,0.023,4.829c-0.025,3.508-1.852,5.374-5.318,5.378c-15.873,0.008-31.744,0-47.613,0
		c-32.746-0.004-65.486-0.002-98.23-0.004c-0.889,0-1.783,0.044-2.66-0.056c-2.299-0.26-4.074-2.16-4.16-4.479
		c-0.068-1.83-0.043-3.663-0.018-5.494c0.035-2.769,1.906-4.648,4.695-4.765c3.863-0.156,3.846-0.16,4.348-4.062
		c2.279-17.651,9.932-32.498,23.236-44.373C224.333,106.525,225.972,105.291,227.97,103.665z"/>
	<path fill-rule="evenodd" clip-rule="evenodd" fill="#0CB4AE" d="M471.933,395.996c-4.426,0-8.891,0.169-13.344-0.123
		c-1.082-0.062-2.213-1.521-3.078-2.531c-5.826-6.837-17.385-9.331-25.051-4.684c-2.285,1.376-4.547,4.758-4.572,7.239
		c-0.023,2.104,2.785,5.304,5.047,6.168c5.793,2.202,12.01,3.235,17.982,4.988c4.318,1.253,8.699,2.555,12.773,4.414
		c18.309,8.347,16.73,31.121,3.004,40.563c-2.043,1.41-4.232,2.845-6.557,3.54c-3.732,1.105-6.033,2.76-5.705,7.116
		c0.061,0.838-1.813,2.591-2.857,2.639c-5.768,0.269-11.545,0.329-17.289-0.022c-1.154-0.062-3.188-2.287-3.102-3.358
		c0.426-4.465-1.934-5.853-5.547-7.676c-8.869-4.491-14.781-11.596-16.119-22.752c4.9,0,9.365-0.182,13.807,0.121
		c1.01,0.075,2.117,1.631,2.822,2.715c6.072,9.427,21.24,12.748,30.744,6.678c6.471-4.136,6.494-12.117-0.451-15.266
		c-5.316-2.423-11.254-3.505-16.91-5.222c-4.758-1.435-9.611-2.652-14.221-4.488c-8.627-3.42-13.725-9.878-13.771-19.281
		c-0.039-9.357,4.584-16.389,12.834-20.767c3.441-1.826,7.432-2.763,6.801-8.044c-0.074-0.56,1.689-1.896,2.639-1.921
		c6.072-0.182,12.166-0.268,18.225,0.024c1.131,0.061,3.09,1.981,3.078,3.028c-0.035,3.686,2.08,5.013,4.939,6.449
		C466.958,379.984,472.14,387.624,471.933,395.996z"/>
</g>
</svg>
