<?xml version="1.0" encoding="utf-8"?>
<!-- Generator: Adobe Illustrator 16.0.0, SVG Export Plug-In . SVG Version: 6.00 Build 0)  -->
<!DOCTYPE svg PUBLIC "-//W3C//DTD SVG 1.1//EN" "http://www.w3.org/Graphics/SVG/1.1/DTD/svg11.dtd">
<svg version="1.1" id="Layer_1" xmlns="http://www.w3.org/2000/svg" xmlns:xlink="http://www.w3.org/1999/xlink" x="0px" y="0px"
	 width="623.622px" height="623.62px" viewBox="0 0 623.622 623.62" enable-background="new 0 0 623.622 623.62"
	 xml:space="preserve">
<g>
	<g>
		<g>
			<path fill-rule="evenodd" clip-rule="evenodd" d="M274.85,309.611c1.713-1.845,19.104-20.266,21.809-23.441
				c16.076,21.218,41.75,22.867,63.637,34.607c-21.254,18.08-38.152,38.726-44.729,65.839c-6.615,27.168-1.639,52.99,11.99,78.585
				c-3.254,0.269-5.578,0.663-7.898,0.663c-60.543,0.018-121.082,0.052-181.617-0.021c-18.42-0.014-29.869-13.137-26.801-31.453
				c4.232-25.174,9.186-50.246,13.934-75.336c0.537-2.904,1.855-5.627,2.66-8.495c2.986-10.607,9.262-17.597,19.992-21.503
				c20.797-7.582,41.303-15.969,61.811-24.32c4.119-1.667,7.947-4.318,11.512-7.024c4.133-3.136,7.824-6.844,12.295-10.844
				c7.43,8.011,14.668,15.251,21.102,23.154L274.85,309.611z"/>
			<path fill-rule="evenodd" clip-rule="evenodd" d="M437.807,318.628c-58.553-0.37-96.266,47.188-97.371,94.664
				c-1.254,54.369,42.838,99.71,96.652,99.505c54.35-0.203,96.883-42.242,97.047-96.694
				C535.979,368.585,498.186,318.996,437.807,318.628z"/>
			<path fill-rule="evenodd" clip-rule="evenodd" d="M338.156,195.731c-0.449,6.997-1.723,14.013-3.344,20.845
				c-0.676,2.913-2.648,7.139-4.904,7.776c-6.852,1.928-7.633,7.634-9.805,12.639c-9.213,21.274-24.191,36.703-45.689,45.834
				c-6.568,2.789-12.619,2.688-19.104-0.144c-22.324-9.746-37.586-26.139-46.367-48.686c-1.582-4.021-2.709-8.045-7.838-9.354
				c-1.578-0.391-3.445-2.771-3.754-4.537c-1.906-9.969-3.695-20.004-4.721-30.118c-0.186-2.012,2.814-5.807,4.885-6.279
				c4.637-1.066,4.861-3.526,4.881-7.345c0.02-2.871-0.02-5.764-0.061-8.655h125.953v14.81
				C337.174,184.798,338.773,186.396,338.156,195.731z"/>
		</g>
	</g>
	<path fill-rule="evenodd" clip-rule="evenodd" fill="#F5D850" d="M223.906,103.665c0,3.699,0.004,6.9,0,10.104
		c0,5.771-0.035,11.543,0,17.313c0.033,4.466,2.842,7.76,6.91,8.223c4.66,0.533,8.547-3.065,8.563-8.034
		c0.033-10.988,0.008-21.976,0.02-32.963c0.004-3.675-0.373-3.033,2.854-3.993c4.287-1.276,8.684-2.206,13.055-3.184
		c1.691-0.38,1.912-0.046,1.912,2.051c-0.008,16.318-0.008,32.633-0.023,48.948c-0.006,2.755,0.781,5.162,3.029,6.88
		c2.52,1.927,5.297,2.22,8.139,0.841c3.01-1.463,4.311-4.091,4.324-7.317c0.043-10.269,0.01-20.535,0.016-30.801
		c0-6.327,0.055-12.654-0.029-18.98c-0.023-1.651,0.713-1.948,2.008-1.635c4.678,1.122,9.336,2.314,14.014,3.437
		c1.451,0.348,1.844,1.186,1.836,2.634c-0.053,11.269-0.045,22.533-0.021,33.799c0.008,4.404,2.514,7.545,6.477,8.265
		c4.705,0.851,8.984-2.853,9-7.87c0.035-8.547,0.02-17.095,0.023-25.638c0-0.539,0-1.076,0-2.172
		c2.756,2.316,5.27,4.204,7.529,6.361c11.422,10.902,18.297,24.219,20.834,39.785c0.283,1.748,0.42,3.519,0.598,5.282
		c0.092,0.942,0.539,1.364,1.51,1.321c1.109-0.05,2.221-0.03,3.33-0.009c2.701,0.052,4.588,1.924,4.633,4.603
		c0.027,1.611,0.031,3.22,0.023,4.829c-0.027,3.508-1.852,5.374-5.316,5.378c-15.873,0.008-31.746,0-47.619,0
		c-32.742-0.004-65.484-0.002-98.227-0.004c-0.887,0-1.783,0.044-2.662-0.056c-2.299-0.26-4.074-2.16-4.158-4.479
		c-0.068-1.83-0.045-3.663-0.021-5.494c0.041-2.769,1.912-4.648,4.697-4.765c3.863-0.156,3.848-0.16,4.348-4.062
		c2.281-17.651,9.934-32.498,23.238-44.373C220.271,106.525,221.912,105.291,223.906,103.665z"/>
	<g>
		<path fill-rule="evenodd" clip-rule="evenodd" fill="#0CB4AE" d="M395.883,366.97c21.619,0,43.227,0,64.832,0
			c1.9,1.353,2.377,3.279,2.309,5.493c-0.084,2.904-0.021,5.793-0.021,8.864c4.605,0,8.82-0.017,13.025,0
			c4.313,0.014,5.408,1.053,5.408,5.28c0.018,24.199,0.018,48.397,0,72.595c0,4.185-1.137,5.252-5.428,5.252
			c-19.645,0-39.311,0-58.967,0c-4.326,0-5.393-1.099-5.418-5.522c-0.012-2.559,0-5.117,0-7.795c-4.82,0-9.199,0.044-13.58,0
			c-3.594-0.046-4.844-1.265-4.844-4.877c-0.025-24.769-0.01-49.539-0.041-74.311C393.158,369.738,393.783,367.977,395.883,366.97z
			 M456.816,408.881c0-10.791,0.008-21.597,0-32.402c0-3.039-0.285-3.309-3.377-3.324c-16.904,0-33.795,0-50.684,0
			c-3.17,0.016-3.434,0.285-3.434,3.537c0,21.609,0,43.204,0,64.798c0,3.16,0.316,3.462,3.521,3.462c16.801,0,33.621,0,50.422,0
			c3.311,0,3.551-0.256,3.551-3.671C456.816,430.475,456.816,419.685,456.816,408.881z M463.002,388.474c0,1.265,0,2.212,0,3.16
			c0,17.953,0.006,35.906,0,53.859c0,4.559-1.068,5.644-5.576,5.644c-11.865,0.015-23.723,0-35.58,0c-0.941,0-1.883,0-3.029,0
			c0,1.219,0,2.106,0,2.979c0,4.063,0.064,4.139,4.059,4.139c16.234,0,32.482,0,48.721,0c3.537,0,3.709-0.182,3.709-3.748
			c0.006-17.546,0.006-35.093,0.006-52.625c0-3.581-0.021-7.147,0-10.713c0.023-1.673-0.629-2.68-2.377-2.68
			C469.775,388.474,466.605,388.474,463.002,388.474z"/>
		<path fill-rule="evenodd" clip-rule="evenodd" fill="#0CB4AE" d="M409.652,391.394c0-2.017,0-3.779,0-5.748
			c12.258,0,24.447,0,36.781,0c0,1.864,0,3.717,0,5.748C434.236,391.394,422.055,391.394,409.652,391.394z"/>
		<path fill-rule="evenodd" clip-rule="evenodd" fill="#0CB4AE" d="M409.66,409.827c0-2,0-3.762,0-5.702c12.266,0,24.439,0,36.766,0
			c0,1.85,0,3.686,0,5.702C434.229,409.827,422.055,409.827,409.66,409.827z"/>
		<path fill-rule="evenodd" clip-rule="evenodd" fill="#0CB4AE" d="M446.486,422.619c0,1.957,0,3.702,0,5.673
			c-12.23,0-24.408,0-36.742,0c0-1.82,0-3.641,0-5.673C421.91,422.619,434.084,422.619,446.486,422.619z"/>
	</g>
</g>
</svg>
