<?xml version="1.0" encoding="utf-8"?>
<!-- Generator: Adobe Illustrator 19.0.0, SVG Export Plug-In . SVG Version: 6.00 Build 0)  -->
<svg version="1.1" id="Layer_1" xmlns="http://www.w3.org/2000/svg" xmlns:xlink="http://www.w3.org/1999/xlink" x="0px" y="0px"
	 viewBox="6 85.4 623.6 623.6" style="enable-background:new 6 85.4 623.6 623.6;" xml:space="preserve">
<style type="text/css">
	.st0{fill:#F5D850;}
	.st1{fill:#0CB4AE;}
</style>
<g>
	<g>
		<g>
			<path d="M280.9,395c1.7-1.8,19.1-20.3,21.8-23.4c16.1,21.2,41.8,22.9,63.6,34.6c-21.3,18.1-38.2,38.7-44.7,65.8
				c-6.6,27.2-1.6,53,12,78.6c-3.3,0.3-5.6,0.7-7.9,0.7c-60.5,0-121.1,0.1-181.6,0c-18.4,0-29.9-13.1-26.8-31.5
				c4.2-25.2,9.2-50.2,13.9-75.3c0.5-2.9,1.9-5.6,2.7-8.5c3-10.6,9.3-17.6,20-21.5c20.8-7.6,41.3-16,61.8-24.3
				c4.1-1.7,7.9-4.3,11.5-7c4.1-3.1,7.8-6.8,12.3-10.8c7.4,8,14.7,15.3,21.1,23.2L280.9,395z"/>
			<path d="M443.8,404c-58.6-0.4-96.3,47.2-97.4,94.7c-1.3,54.4,42.8,99.7,96.7,99.5c54.4-0.2,96.9-42.2,97-96.7
				C542,454,504.2,404.4,443.8,404z"/>
			<path d="M344.2,281.1c-0.4,7-1.7,14-3.3,20.8c-0.7,2.9-2.6,7.1-4.9,7.8c-6.9,1.9-7.6,7.6-9.8,12.6c-9.2,21.3-24.2,36.7-45.7,45.8
				c-6.6,2.8-12.6,2.7-19.1-0.1c-22.3-9.7-37.6-26.1-46.4-48.7c-1.6-4-2.7-8-7.8-9.4c-1.6-0.4-3.4-2.8-3.8-4.5
				c-1.9-10-3.7-20-4.7-30.1c-0.2-2,2.8-5.8,4.9-6.3c4.6-1.1,4.9-3.5,4.9-7.3c0-2.9,0-5.8-0.1-8.7h126v14.8
				C343.2,270.2,344.8,271.8,344.2,281.1z"/>
		</g>
	</g>
	<path class="st0" d="M229.9,164c0,3.7,0,6.9,0,10.1c0,5.8,0,11.5,0,17.3c0,4.5,2.8,7.8,6.9,8.2c4.7,0.5,8.5-3.1,8.6-8
		c0-11,0-22,0-33c0-3.7-0.4-3,2.9-4c4.3-1.3,8.7-2.2,13.1-3.2c1.7-0.4,1.9,0,1.9,2.1c0,16.3,0,32.6,0,48.9c0,2.8,0.8,5.2,3,6.9
		c2.5,1.9,5.3,2.2,8.1,0.8c3-1.5,4.3-4.1,4.3-7.3c0-10.3,0-20.5,0-30.8c0-6.3,0.1-12.7,0-19c0-1.7,0.7-1.9,2-1.6
		c4.7,1.1,9.3,2.3,14,3.4c1.5,0.3,1.8,1.2,1.8,2.6c-0.1,11.3,0,22.5,0,33.8c0,4.4,2.5,7.5,6.5,8.3c4.7,0.9,9-2.9,9-7.9
		c0-8.5,0-17.1,0-25.6c0-0.5,0-1.1,0-2.2c2.8,2.3,5.3,4.2,7.5,6.4c11.4,10.9,18.3,24.2,20.8,39.8c0.3,1.7,0.4,3.5,0.6,5.3
		c0.1,0.9,0.5,1.4,1.5,1.3c1.1-0.1,2.2,0,3.3,0c2.7,0.1,4.6,1.9,4.6,4.6c0,1.6,0,3.2,0,4.8c0,3.5-1.9,5.4-5.3,5.4
		c-15.9,0-31.7,0-47.6,0c-32.7,0-65.5,0-98.2,0c-0.9,0-1.8,0-2.7-0.1c-2.3-0.3-4.1-2.2-4.2-4.5c-0.1-1.8,0-3.7,0-5.5
		c0-2.8,1.9-4.6,4.7-4.8c3.9-0.2,3.8-0.2,4.3-4.1c2.3-17.7,9.9-32.5,23.2-44.4C226.3,166.9,227.9,165.7,229.9,164z"/>
	<g>
		<path class="st1" d="M401.9,452.4c21.6,0,43.2,0,64.8,0c1.9,1.4,2.4,3.3,2.3,5.5c-0.1,2.9,0,5.8,0,8.9c4.6,0,8.8,0,13,0
			c4.3,0,5.4,1.1,5.4,5.3c0,24.2,0,48.4,0,72.6c0,4.2-1.1,5.3-5.4,5.3c-19.6,0-39.3,0-59,0c-4.3,0-5.4-1.1-5.4-5.5
			c0-2.6,0-5.1,0-7.8c-4.8,0-9.2,0-13.6,0c-3.6,0-4.8-1.3-4.8-4.9c0-24.8,0-49.5,0-74.3C399.2,455.1,399.8,453.4,401.9,452.4z
			 M462.8,494.3c0-10.8,0-21.6,0-32.4c0-3-0.3-3.3-3.4-3.3c-16.9,0-33.8,0-50.7,0c-3.2,0-3.4,0.3-3.4,3.5c0,21.6,0,43.2,0,64.8
			c0,3.2,0.3,3.5,3.5,3.5c16.8,0,33.6,0,50.4,0c3.3,0,3.6-0.3,3.6-3.7C462.8,515.9,462.8,505.1,462.8,494.3z M469,473.9
			c0,1.3,0,2.2,0,3.2c0,18,0,35.9,0,53.9c0,4.6-1.1,5.6-5.6,5.6c-11.9,0-23.7,0-35.6,0c-0.9,0-1.9,0-3,0c0,1.2,0,2.1,0,3
			c0,4.1,0.1,4.1,4.1,4.1c16.2,0,32.5,0,48.7,0c3.5,0,3.7-0.2,3.7-3.7c0-17.5,0-35.1,0-52.6c0-3.6,0-7.1,0-10.7
			c0-1.7-0.6-2.7-2.4-2.7C475.8,473.9,472.6,473.9,469,473.9z"/>
		<path class="st1" d="M415.7,476.8c0-2,0-3.8,0-5.7c12.3,0,24.4,0,36.8,0c0,1.9,0,3.7,0,5.7C440.2,476.8,428.1,476.8,415.7,476.8z"
			/>
		<path class="st1" d="M415.7,495.2c0-2,0-3.8,0-5.7c12.3,0,24.4,0,36.8,0c0,1.9,0,3.7,0,5.7C440.2,495.2,428.1,495.2,415.7,495.2z"
			/>
		<path class="st1" d="M452.5,508c0,2,0,3.7,0,5.7c-12.2,0-24.4,0-36.7,0c0-1.8,0-3.6,0-5.7C427.9,508,440.1,508,452.5,508z"/>
	</g>
</g>
</svg>
